<svg xmlns="http://www.w3.org/2000/svg" viewBox="0 0 980 430">
  <title>İkon Kaynak Kararı</title>
  <defs>
    <marker id="arrow" viewBox="0 0 1 1" refX="0" refY="0" markerWidth="1" markerHeight="1" orient="auto-start-reverse" overflow="visible" preserveAspectRatio="xMidYMid">
      <path d="M 5.77 0 L -2.88 5 V -5 Z" transform="scale(0.5)" fill="#334155" stroke="#334155" stroke-width="1pt" />
    </marker>
    <marker id="dot-arrow" viewBox="0 0 7 7" refX="3.5" refY="3.5" markerWidth="7" markerHeight="7" markerUnits="userSpaceOnUse">
      <circle cx="3.5" cy="3.5" r="3.5" fill="#334155" />
    </marker>
    <style>
      .title { font: 700 22px system-ui, -apple-system, "Segoe UI", sans-serif; fill: #0f172a; }
      .sub { font: 13px system-ui, -apple-system, "Segoe UI", sans-serif; fill: #475569; }
      .card { fill: #fff; stroke: #cbd5e1; stroke-width: 1.4; }
      .head { font: 700 14px ui-monospace, SFMono-Regular, Menlo, Consolas, monospace; fill: #fff; }
      .body { font: 12px system-ui, -apple-system, "Segoe UI", sans-serif; fill: #334155; }
      .small { font: 11px system-ui, -apple-system, "Segoe UI", sans-serif; fill: #64748b; }
      .branch-label { font: 700 11px system-ui, -apple-system, sans-serif; dominant-baseline: central; text-anchor: middle; }
      .arrow { stroke: #334155; stroke-width: 2; fill: none; marker-end: url(#arrow); marker-start: url(#dot-arrow); }
    </style>
  </defs>

  <rect width="980" height="430" rx="10" fill="#f8fafc" />
  <text x="490" y="36" text-anchor="middle" class="title">İkon Kaynak Kararı</text>
  <text x="490" y="60" text-anchor="middle" class="sub">Dosyanın konumu, enum eşlemesi ve renk davranışı birlikte seçilir.</text>

  <rect x="40" y="118" width="170" height="94" rx="8" class="card" />
  <rect x="40" y="118" width="170" height="30" rx="8" fill="#0f766e" />
  <path d="M 40 140 H 210 V 148 H 40 Z" fill="#0f766e" />
  <text x="56" y="138" class="head">Yeni SVG</text>
  <text x="56" y="170" class="body">tek renk mi?</text>
  <text x="56" y="188" class="small">tema rengiyle boyanacak</text>
  <text x="56" y="202" class="small">mı?</text>

  <rect x="280" y="74" width="190" height="104" rx="8" class="card" />
  <rect x="280" y="74" width="190" height="30" rx="8" fill="#0284c7" />
  <path d="M 280 96 H 470 V 104 H 280 Z" fill="#0284c7" />
  <text x="296" y="94" class="head">IconName</text>
  <text x="296" y="126" class="body">icons/*.svg</text>
  <text x="296" y="144" class="body">snake_case path</text>
  <text x="296" y="162" class="small">Icon::new(...)</text>

  <rect x="280" y="244" width="190" height="104" rx="8" class="card" />
  <rect x="280" y="244" width="190" height="30" rx="8" fill="#7c3aed" />
  <path d="M 280 266 H 470 V 274 H 280 Z" fill="#7c3aed" />
  <text x="296" y="264" class="head">ImageSource</text>
  <text x="296" y="296" class="body">çok renkli logo</text>
  <text x="296" y="314" class="body">dış dosya / tema ikonu</text>
  <text x="296" y="332" class="small">img() veya IconTheme</text>

  <rect x="560" y="74" width="180" height="104" rx="8" class="card" />
  <rect x="560" y="74" width="180" height="30" rx="8" fill="#059669" />
  <path d="M 560 96 H 740 V 104 H 560 Z" fill="#059669" />
  <text x="576" y="94" class="head">svg()</text>
  <text x="576" y="126" class="body">alpha mask</text>
  <text x="576" y="144" class="body">current color</text>
  <text x="576" y="162" class="small">SvgRenderer</text>

  <rect x="560" y="244" width="180" height="104" rx="8" class="card" />
  <rect x="560" y="244" width="180" height="30" rx="8" fill="#d97706" />
  <path d="M 560 266 H 740 V 274 H 560 Z" fill="#d97706" />
  <text x="576" y="264" class="head">raster yol</text>
  <text x="576" y="296" class="body">renkler korunur</text>
  <text x="576" y="314" class="body">format loader seçer</text>
  <text x="576" y="332" class="small">ImageAssetLoader</text>

  <rect x="812" y="154" width="120" height="104" rx="8" class="card" />
  <rect x="812" y="154" width="120" height="30" rx="8" fill="#334155" />
  <path d="M 812 176 H 932 V 184 H 812 Z" fill="#334155" />
  <text x="828" y="174" class="head">UI</text>
  <text x="828" y="206" class="body">Icon</text>
  <text x="828" y="224" class="body">Vector</text>
  <text x="828" y="242" class="small">theme aware</text>

  <path d="M 210.188 163.873 C 261.395 167.423 249.441 111.616 272.012 111.616" class="arrow" />
  <path d="M 121.32 212.79 C 120.275 296.915 248.726 296.195 273 296" class="arrow" />
  <path d="M 470 126 H 553" class="arrow" />
  <path d="M 470 296 H 553" class="arrow" />
  <path d="M 740 126 C 790 126 783 208.026 805 208.026" class="arrow" />
  <path d="M 740 296 C 790 296 783 208.318 805 208.318" class="arrow" />

  <text x="202.104" y="165.407" class="branch-label" fill="#0284c7">E</text>
  <text x="122.104" y="204.255" class="branch-label" fill="#059669">H</text>
</svg>
