<svg xmlns="http://www.w3.org/2000/svg" viewBox="0 0 940 440">
  <title>Feedback Yüzeyi Seçimi</title>
  <defs>
    <style>
      .title{font:700 22px system-ui,-apple-system,"Segoe UI",sans-serif;fill:#0f172a}
      .sub{font:13px system-ui,-apple-system,"Segoe UI",sans-serif;fill:#475569}
      .axis{font:700 12px system-ui,-apple-system,"Segoe UI",sans-serif;fill:#0f172a}
      .name{font:700 14px ui-monospace,SFMono-Regular,Menlo,Consolas,monospace;fill:#fff}
      .body{font:12px system-ui,-apple-system,"Segoe UI",sans-serif;fill:#334155}
      .small{font:11px system-ui,-apple-system,"Segoe UI",sans-serif;fill:#64748b}
    </style>
  </defs>
  <rect width="940" height="440" rx="10" fill="#f8fafc"/>
  <text x="470" y="36" text-anchor="middle" class="title">Feedback Yüzeyi Seçimi</text>
  <text x="470" y="60" text-anchor="middle" class="sub">Dikkat seviyesi arttıkça yüzey akışı daha fazla böler.</text>

  <text x="74" y="110" class="axis">Akışı bölme</text>
  <path d="M96 132 V350" stroke="#94a3b8" stroke-width="2"/>
  <path d="M90 132 L96 120 L102 132" fill="#94a3b8"/>
  <text x="116" y="344" class="small">düşük</text>
  <text x="116" y="138" class="small">yüksek</text>

  <rect x="180" y="292" width="160" height="82" rx="8" fill="#fff" stroke="#cbd5e1" stroke-width="1.3"/>
  <rect x="180" y="292" width="160" height="28" rx="8" fill="#0284c7"/>
  <path d="M180 312 H340 V320 H180 Z" fill="#0284c7"/>
  <text x="196" y="311" class="name">Indicator</text>
  <text x="196" y="342" class="body">Küçük durum.</text>
  <text x="196" y="360" class="small">Badge / Progress</text>

  <rect x="384" y="238" width="160" height="82" rx="8" fill="#fff" stroke="#cbd5e1" stroke-width="1.3"/>
  <rect x="384" y="238" width="160" height="28" rx="8" fill="#059669"/>
  <path d="M384 258 H544 V266 H384 Z" fill="#059669"/>
  <text x="400" y="257" class="name">Banner</text>
  <text x="400" y="288" class="body">Kısa mesaj.</text>
  <text x="400" y="306" class="small">Non-blocking CTA</text>

  <rect x="588" y="178" width="160" height="82" rx="8" fill="#fff" stroke="#cbd5e1" stroke-width="1.3"/>
  <rect x="588" y="178" width="160" height="28" rx="8" fill="#d97706"/>
  <path d="M588 198 H748 V206 H588 Z" fill="#d97706"/>
  <text x="604" y="197" class="name">Callout</text>
  <text x="604" y="228" class="body">Açıklamalı uyarı.</text>
  <text x="604" y="246" class="small">Okunması beklenir</text>

  <rect x="384" y="92" width="160" height="82" rx="8" fill="#fff" stroke="#cbd5e1" stroke-width="1.3"/>
  <rect x="384" y="92" width="160" height="28" rx="8" fill="#be123c"/>
  <path d="M384 112 H544 V120 H384 Z" fill="#be123c"/>
  <text x="400" y="111" class="name">AlertModal</text>
  <text x="400" y="142" class="body">Karar zorunlu.</text>
  <text x="400" y="160" class="small">Akış durur</text>

  <rect x="680" y="304" width="180" height="70" rx="8" fill="#fff" stroke="#cbd5e1" stroke-width="1.3"/>
  <text x="700" y="332" class="body">Severity</text>
  <text x="700" y="352" class="small">Info · Success · Warning · Error</text>
  <circle cx="820" cy="328" r="6" fill="#0284c7"/>
  <circle cx="838" cy="328" r="6" fill="#059669"/>
  <circle cx="856" cy="328" r="6" fill="#d97706"/>
  <circle cx="874" cy="328" r="6" fill="#be123c"/>

  <text x="196" y="404" class="small">Kural: mesaj kısa değilse Banner yerine Callout; karar zorunluysa AlertModal.</text>
</svg>
