<svg xmlns="http://www.w3.org/2000/svg" viewBox="0 0 1000 500">
  <title>Liste ve Tree Bileşenleri Haritası</title>
  <defs>
    <filter id="shadow" x="-20%" y="-20%" width="140%" height="140%">
      <feDropShadow dx="0" dy="5" stdDeviation="6" flood-color="#0f172a" flood-opacity="0.06" />
    </filter>
    <marker id="arrow" viewBox="0 0 10 10" refX="9" refY="5" markerWidth="6" markerHeight="6" orient="auto">
      <path d="M 0 1 L 10 5 L 0 9 Z" fill="#64748b" />
    </marker>

    <!-- Degradeler -->
    <linearGradient id="g-sky" x1="0" y1="0" x2="0" y2="1">
      <stop offset="0" stop-color="#38bdf8" />
      <stop offset="1" stop-color="#0284c7" />
    </linearGradient>
    <linearGradient id="g-card" x1="0" y1="0" x2="0" y2="1">
      <stop offset="0" stop-color="#ffffff" />
      <stop offset="1" stop-color="#f1f5f9" />
    </linearGradient>
    <linearGradient id="g-purple" x1="0" y1="0" x2="0" y2="1">
      <stop offset="0" stop-color="#f5f3ff" />
      <stop offset="1" stop-color="#ede9fe" />
    </linearGradient>
    <linearGradient id="g-amber" x1="0" y1="0" x2="0" y2="1">
      <stop offset="0" stop-color="#fbbf24" />
      <stop offset="1" stop-color="#f59e0b" />
    </linearGradient>
    <linearGradient id="g-green" x1="0" y1="0" x2="0" y2="1">
      <stop offset="0" stop-color="#34d399" />
      <stop offset="1" stop-color="#10b981" />
    </linearGradient>
    <linearGradient id="g-note" x1="0" y1="0" x2="0" y2="1">
      <stop offset="0" stop-color="#eff6ff" />
      <stop offset="1" stop-color="#dbeafe" />
    </linearGradient>

    <style>
      .title { font: 800 24px system-ui, -apple-system, sans-serif; fill: #0f172a; letter-spacing: -0.5px; }
      .subtitle { font: 500 15px system-ui, -apple-system, sans-serif; fill: #64748b; }
      .hdr { font: 800 18px ui-monospace, SFMono-Regular, monospace; fill: #ffffff; }
      .nm { font: 800 14px ui-monospace, SFMono-Regular, monospace; fill: #0f172a; }
      .nm-purple { font: 800 14px ui-monospace, SFMono-Regular, monospace; fill: #7c3aed; }
      .desc { font: 13px system-ui, -apple-system, sans-serif; fill: #475569; }
      .desc-light { font: 13px system-ui, -apple-system, sans-serif; fill: #e0f2fe; }
      .arrow-line { stroke: #64748b; stroke-width: 3; fill: none; marker-end: url(#arrow); stroke-linecap: round; stroke-linejoin: round; }
      .card { fill: url(#g-card); stroke: #e2e8f0; stroke-width: 1.5; }

      /* Akan kesik çizgi animasyonu (sol bileşenler List'e akar, List'ten sağa) */
      .flow { stroke: #94a3b8; stroke-width: 2.2; fill: none; stroke-linecap: round;
              stroke-dasharray: 7 9; animation: dash 9s linear infinite; }
      @keyframes dash { to { stroke-dashoffset: -160; } }
      @media (prefers-reduced-motion: reduce) { .flow { animation: none; } }
    </style>
  </defs>

  <rect width="100%" height="100%" rx="12" fill="#f8fafc" />

  <text x="500" y="46" text-anchor="middle" class="title">Liste ve Tree Bileşenleri Haritası</text>
  <text x="500" y="74" text-anchor="middle" class="subtitle">Her bileşenin rolü ve Liste içindeki hiyerarşik yeri</text>

  <!-- Sol Bağlantılar (Gelenler) -->
  <path d="M 230 115 C 300 115 300 175 350 175" class="arrow-line" />
  <path d="M 230 175 L 350 175" class="arrow-line" />
  <path d="M 230 235 C 300 235 300 175 350 175" class="arrow-line" />

  <!-- Sağ Bağlantılar (Gidenler) -->
  <path d="M 650 175 C 700 175 700 115 750 115" class="arrow-line" />
  <path d="M 650 175 L 750 175" class="arrow-line" />
  <path d="M 650 175 C 700 175 700 235 750 235" class="arrow-line" />

  <!-- Akan kesik çizgiler (oklarla aynı yol, dikkat çekici akış) -->
  <path d="M 230 115 C 300 115 300 175 350 175" class="flow" />
  <path d="M 230 175 L 350 175" class="flow" />
  <path d="M 230 235 C 300 235 300 175 350 175" class="flow" />
  <path d="M 650 175 C 700 175 700 115 750 115" class="flow" />
  <path d="M 650 175 L 750 175" class="flow" />
  <path d="M 650 175 C 700 175 700 235 750 235" class="flow" />

  <!-- Merkez: List Kapsayıcısı -->
  <g transform="translate(360, 140)">
    <rect width="280" height="70" rx="10" fill="url(#g-sky)" filter="url(#shadow)" />
    <text x="140" y="32" text-anchor="middle" class="hdr">List</text>
    <text x="140" y="52" text-anchor="middle" class="desc-light">Kapsayıcı. Header + empty state + rows.</text>
  </g>

  <!-- SOL BLOKLAR -->
  <g transform="translate(30, 90)">
    <rect width="200" height="50" rx="8" class="card" filter="url(#shadow)" />
    <text x="100" y="22" text-anchor="middle" class="nm">ListHeader</text>
    <text x="100" y="38" text-anchor="middle" class="desc">Ana bölüm başlığı</text>
  </g>

  <g transform="translate(30, 150)">
    <rect width="200" height="50" rx="8" class="card" filter="url(#shadow)" />
    <text x="100" y="22" text-anchor="middle" class="nm">ListSubHeader</text>
    <text x="100" y="38" text-anchor="middle" class="desc">Alt bölüm başlığı</text>
  </g>

  <g transform="translate(30, 210)">
    <rect width="200" height="50" rx="8" class="card" filter="url(#shadow)" />
    <text x="100" y="22" text-anchor="middle" class="nm">ListBulletItem</text>
    <text x="100" y="38" text-anchor="middle" class="desc">Sabit açıklama maddesi</text>
  </g>

  <!-- SAĞ BLOKLAR -->
  <g transform="translate(760, 90)">
    <rect width="210" height="50" rx="8" class="card" filter="url(#shadow)" />
    <text x="105" y="22" text-anchor="middle" class="nm">ListItem</text>
    <text x="105" y="38" text-anchor="middle" class="desc">Tıklanabilir / seçilebilir satır</text>
  </g>

  <g transform="translate(760, 150)">
    <rect width="210" height="50" rx="8" class="card" filter="url(#shadow)" />
    <text x="105" y="22" text-anchor="middle" class="nm">ListSeparator</text>
    <text x="105" y="38" text-anchor="middle" class="desc">Yatay ayırıcı çizgi</text>
  </g>

  <g transform="translate(760, 210)">
    <rect width="210" height="50" rx="8" fill="url(#g-purple)" stroke="#7c3aed" stroke-width="2" filter="url(#shadow)" />
    <text x="105" y="22" text-anchor="middle" class="nm-purple">TreeViewItem</text>
    <text x="105" y="38" text-anchor="middle" class="desc">Hiyerarşik, açılır/kapanır satır</text>
  </g>

  <!-- Alt Dekorator Bolumu -->
  <text x="500" y="310" text-anchor="middle" class="subtitle">Büyük sanallaştırılmış listeler (virtualized) için dekoratörler:</text>

  <g transform="translate(230, 330)">
    <rect width="240" height="80" rx="10" class="card" stroke="#f59e0b" filter="url(#shadow)" />
    <path d="M 0 10 A 10 10 0 0 1 10 0 H 230 A 10 10 0 0 1 240 10 V 30 H 0 Z" fill="url(#g-amber)" />
    <text x="120" y="20" text-anchor="middle" class="hdr" style="font-size: 14px;">StickyItems</text>
    <text x="120" y="52" text-anchor="middle" class="desc">uniform_list içinde sticky</text>
    <text x="120" y="68" text-anchor="middle" class="desc">header / parent davranışı</text>
  </g>

  <g transform="translate(530, 330)">
    <rect width="240" height="80" rx="10" class="card" stroke="#10b981" filter="url(#shadow)" />
    <path d="M 0 10 A 10 10 0 0 1 10 0 H 230 A 10 10 0 0 1 240 10 V 30 H 0 Z" fill="url(#g-green)" />
    <text x="120" y="20" text-anchor="middle" class="hdr" style="font-size: 14px;">IndentGuides</text>
    <text x="120" y="52" text-anchor="middle" class="desc">Büyük hiyerarşik listede</text>
    <text x="120" y="68" text-anchor="middle" class="desc">girinti çizgileri (decoration)</text>
  </g>

  <!-- En Alt Not -->
  <g transform="translate(30, 440)">
    <rect width="940" height="40" rx="8" fill="url(#g-note)" stroke="#3b82f6" stroke-width="1.5" />
    <text x="470" y="25" text-anchor="middle" class="desc" style="font-weight: 500;">Kural: Küçük statik listeler → List + ListItem yeterli. Binlerce satır → uniform_list + StickyItems/IndentGuides</text>
  </g>

</svg>
