<svg xmlns="http://www.w3.org/2000/svg" viewBox="0 0 1160 550">
  <title>WindowButtonLayout Platform Desteği</title>
  <defs>
    <filter id="shadow" x="-20%" y="-20%" width="140%" height="140%">
      <feDropShadow dx="0" dy="5" stdDeviation="6" flood-color="#0f172a" flood-opacity="0.06" />
    </filter>
    <linearGradient id="g-sky" x1="0" y1="0" x2="0" y2="1">
      <stop offset="0" stop-color="#0ea5e9" />
      <stop offset="1" stop-color="#0284c7" />
    </linearGradient>
    <linearGradient id="g-slate" x1="0" y1="0" x2="0" y2="1">
      <stop offset="0" stop-color="#334155" />
      <stop offset="1" stop-color="#1e293b" />
    </linearGradient>
    <linearGradient id="g-card" x1="0" y1="0" x2="0" y2="1">
      <stop offset="0" stop-color="#ffffff" />
      <stop offset="1" stop-color="#f8fafc" />
    </linearGradient>
    <linearGradient id="g-amber" x1="0" y1="0" x2="0" y2="1">
      <stop offset="0" stop-color="#fffbeb" />
      <stop offset="1" stop-color="#fef3c7" />
    </linearGradient>
    <style>
      .title { font: 800 26px system-ui, -apple-system, sans-serif; fill: #0f172a; letter-spacing: -0.5px; }
      .subtitle { font: 500 16px system-ui, -apple-system, sans-serif; fill: #64748b; }
      .hdr { font: 800 15px system-ui, -apple-system, sans-serif; fill: #ffffff; }
      .feat { font: 600 14px ui-monospace, SFMono-Regular, Menlo, Consolas, monospace; fill: #0f172a; }
      .featx { font: 700 14px system-ui, -apple-system, sans-serif; fill: #0f172a; }
      .cell { font: 500 14px system-ui, -apple-system, sans-serif; fill: #475569; }
      .yes { font: 800 14px ui-monospace, SFMono-Regular, monospace; fill: #059669; }
      .na { font: 700 14px system-ui, -apple-system, sans-serif; fill: #94a3b8; }
      .dash { font: 800 18px system-ui, -apple-system, sans-serif; fill: #cbd5e1; }
      .note { font: 500 14px system-ui, -apple-system, sans-serif; fill: #92400e; }
      .mono { font: 13px ui-monospace, SFMono-Regular, monospace; fill: #334155; }
    </style>
  </defs>

  <rect width="100%" height="100%" rx="12" fill="#f8fafc" />

  <text x="580" y="46" text-anchor="middle" class="title">WindowButtonLayout Platform Desteği</text>
  <text x="580" y="74" text-anchor="middle" class="subtitle">Buton düzeni yalnızca Linux/FreeBSD CSD penceresinde anlamlıdır.</text>

  <g transform="translate(40, 110)">
    <rect width="1080" height="360" rx="14" fill="url(#g-card)" stroke="#e2e8f0" stroke-width="1.5" filter="url(#shadow)" />

    <!-- Satır Zeminleri (zebra) -->
    <rect x="0" y="50" width="1080" height="80" fill="#f8fafc" />
    <rect x="0" y="130" width="1080" height="80" fill="#ffffff" />
    <rect x="0" y="210" width="1080" height="80" fill="#f8fafc" />
    <rect x="0" y="290" width="1080" height="70" fill="#ffffff" />

    <!-- Linux/CSD sütunu vurgu zemini (desteklenen tek platform) -->
    <rect x="280" y="50" width="320" height="310" fill="#0ea5e9" opacity="0.05" />

    <!-- Dikey Çizgiler -->
    <path d="M 280 0 V 360 M 600 0 V 360 M 840 0 V 360" stroke="#e2e8f0" stroke-width="1.5" />
    <!-- Yatay satır ayraçları -->
    <path d="M 0 130 H 1080 M 0 210 H 1080 M 0 290 H 1080" stroke="#e2e8f0" stroke-width="1" />

    <!-- Başlık Satırı (taban: slate) -->
    <path d="M 0 14 A 14 14 0 0 1 14 0 H 1066 A 14 14 0 0 1 1080 14 V 50 H 0 Z" fill="url(#g-slate)" />
    <!-- Linux/CSD başlık bölümü vurgulu (sky) -->
    <rect x="280" y="0" width="320" height="50" fill="url(#g-sky)" />
    <text x="140" y="31" text-anchor="middle" class="hdr">Özellik</text>
    <text x="440" y="31" text-anchor="middle" class="hdr">Linux / FreeBSD (CSD)</text>
    <text x="720" y="31" text-anchor="middle" class="hdr">Windows</text>
    <text x="960" y="31" text-anchor="middle" class="hdr">macOS</text>

    <!-- Satır 1 -->
    <text x="20" y="95" class="feat">cx.button_layout()</text>
    <text x="300" y="85" class="yes">Some(WindowButtonLayout)</text>
    <text x="300" y="105" class="cell">GTK/GNOME masaüstü ayarını okur.</text>
    <text x="620" y="90" class="na">None</text>
    <text x="620" y="110" class="cell">Her zaman</text>
    <text x="860" y="90" class="na">None</text>
    <text x="860" y="110" class="cell">Her zaman</text>

    <!-- Satır 2 -->
    <text x="20" y="175" class="featx">Varsayılan Düzen</text>
    <text x="300" y="165" class="mono">linux_default()</text>
    <text x="300" y="185" class="cell">Sağ: Minimize, Maximize, Close</text>
    <text x="620" y="165" class="cell">Sistem caption</text>
    <text x="620" y="185" class="cell">Değiştirilemez</text>
    <text x="860" y="165" class="cell">Sol: Yerel</text>
    <text x="860" y="185" class="cell">Trafik ışıkları</text>

    <!-- Satır 3 -->
    <text x="20" y="255" class="featx">Özel Yerleşim</text>
    <text x="300" y="240" class="yes">3 Mod</text>
    <text x="300" y="260" class="mono">platform_default / standard</text>
    <text x="300" y="280" class="mono">GNOME string</text>
    <text x="720" y="259" text-anchor="middle" class="dash">—</text>
    <text x="960" y="259" text-anchor="middle" class="dash">—</text>

    <!-- Satır 4 -->
    <text x="20" y="330" class="featx">GNOME Format Örneği</text>
    <text x="300" y="320" class="mono">"close:minimize,maximize"</text>
    <text x="300" y="340" class="cell">Sol: Close | Sağ: Min, Max</text>
    <text x="720" y="334" text-anchor="middle" class="dash">—</text>
    <text x="960" y="334" text-anchor="middle" class="dash">—</text>
  </g>

  <rect x="40" y="490" width="1080" height="44" rx="10" fill="url(#g-amber)" stroke="#fde68a" stroke-width="1.5" filter="url(#shadow)" />
  <text x="580" y="517" text-anchor="middle" class="note">Not: set_button_layout Windows/macOS üzerinde görünür etki üretmez. MAX_BUTTONS_PER_SIDE = 3.</text>

</svg>
