<svg xmlns="http://www.w3.org/2000/svg" viewBox="0 0 800 500">
  <title>Ayarlar yükleme ve birleştirme akışı</title>
  <defs>
    <marker id="aSlate" viewBox="0 0 10 10" refX="9" refY="5" markerWidth="7" markerHeight="7" orient="auto-start-reverse"><path d="M0 0L10 5L0 10z" fill="#64748b"/></marker>
    <marker id="aEmerald" viewBox="0 0 10 10" refX="9" refY="5" markerWidth="7" markerHeight="7" orient="auto-start-reverse"><path d="M0 0L10 5L0 10z" fill="#059669"/></marker>
    <marker id="aViolet" viewBox="0 0 10 10" refX="9" refY="5" markerWidth="7" markerHeight="7" orient="auto-start-reverse"><path d="M0 0L10 5L0 10z" fill="#7c3aed"/></marker>
    <marker id="aCyan" viewBox="0 0 10 10" refX="9" refY="5" markerWidth="7" markerHeight="7" orient="auto-start-reverse"><path d="M0 0L10 5L0 10z" fill="#0891b2"/></marker>
    <marker id="aAmber" viewBox="0 0 10 10" refX="9" refY="5" markerWidth="7" markerHeight="7" orient="auto-start-reverse"><path d="M0 0L10 5L0 10z" fill="#d97706"/></marker>
    <marker id="aRose" viewBox="0 0 10 10" refX="9" refY="5" markerWidth="7" markerHeight="7" orient="auto-start-reverse"><path d="M0 0L10 5L0 10z" fill="#be123c"/></marker>
    <marker id="aSky" viewBox="0 0 10 10" refX="9" refY="5" markerWidth="7" markerHeight="7" orient="auto-start-reverse"><path d="M0 0L10 5L0 10z" fill="#0284c7"/></marker>
    <style>
      text{font-family:system-ui,-apple-system,"Segoe UI",sans-serif}
      .title{font-size:20px;font-weight:700;fill:#0f172a}
      .sub{font-size:12px;font-weight:600;fill:#475569}
      .h{font-size:13px;font-weight:700;fill:#0f172a}
      .t{font-size:12px;font-weight:600;fill:#0f172a}
      .body{font-size:12px;fill:#475569}
      .small{font-size:10px;fill:#64748b}
      .mono{font-family:ui-monospace,SFMono-Regular,Menlo,Consolas,monospace;font-size:11px;fill:#0f172a}
      .card{fill:#fff;stroke-width:1.6}
      .tEmerald{fill:#059669}.tViolet{fill:#7c3aed}.tCyan{fill:#0891b2}.tAmber{fill:#d97706}.tRose{fill:#be123c}.tSky{fill:#0284c7}.tSlate{fill:#64748b}.tWhite{fill:#fff}
      .arrow{stroke:#64748b;stroke-width:2;fill:none;marker-end:url(#aSlate)}
      .aEm{stroke:#059669;marker-end:url(#aEmerald)}.aVi{stroke:#7c3aed;marker-end:url(#aViolet)}.aCy{stroke:#0891b2;marker-end:url(#aCyan)}.aAm{stroke:#d97706;marker-end:url(#aAmber)}.aRo{stroke:#be123c;marker-end:url(#aRose)}.aSk{stroke:#0284c7;marker-end:url(#aSky)}
    </style>
  </defs>
  <rect width="100%" height="100%" rx="10" fill="#f8fafc"/>

  <text x="400" y="40" text-anchor="middle" class="title">Ayarlar (Settings) Yükleme ve Birleştirme Akışı</text>
  <text x="400" y="63" text-anchor="middle" class="sub">Farklı seviyelerdeki ayarların SettingsStore üzerinde öncelik sırasıyla çözümlenmesi</text>

  <!-- Kaynak dosyalar (disk) -->
  <g transform="translate(60,120)">
    <rect width="200" height="60" rx="8" class="card" stroke="#94a3b8"/>
    <text x="100" y="35" text-anchor="middle" class="t">1. default.json (Varsayılan)</text>
  </g>
  <g transform="translate(60,210)">
    <rect width="200" height="60" rx="8" class="card" stroke="#7c3aed"/>
    <text x="100" y="35" text-anchor="middle" class="t">2. settings.json (Global)</text>
  </g>
  <g transform="translate(60,300)">
    <rect width="200" height="60" rx="8" class="card" stroke="#0284c7"/>
    <text x="100" y="35" text-anchor="middle" class="t">3. .zed/settings.json (Yerel)</text>
  </g>

  <!-- SettingsStore (birleştirme) -->
  <g transform="translate(360,180)">
    <rect width="180" height="120" rx="12" class="card" stroke="#d97706"/>
    <text x="90" y="32" text-anchor="middle" class="h">SettingsStore</text>
    <text x="90" y="54" text-anchor="middle" class="small">Birleştirme (Merge)</text>
    <rect x="15" y="75" width="150" height="30" rx="6" fill="#d97706" fill-opacity="0.12"/>
    <text x="90" y="94" text-anchor="middle" class="small tAmber" font-weight="600">Hiyerarşik çözümleme</text>
  </g>

  <!-- AppContext (dağıtım) -->
  <g transform="translate(610,180)">
    <rect width="130" height="120" rx="12" class="card" stroke="#059669"/>
    <text x="65" y="32" text-anchor="middle" class="h">AppContext</text>
    <text x="65" y="54" text-anchor="middle" class="small">Global bildirim</text>
    <rect x="15" y="75" width="100" height="30" rx="6" fill="#059669" fill-opacity="0.12"/>
    <text x="65" y="94" text-anchor="middle" class="small tEmerald mono" font-weight="600">observe_global</text>
  </g>

  <!-- Akış hatları -->
  <path d="M 260 150 L 300 150 L 300 200 L 360 200" class="arrow aAm"/>
  <path d="M 260 240 L 360 240" class="arrow aAm"/>
  <path d="M 260 330 L 300 330 L 300 260 L 360 260" class="arrow aAm"/>
  <path d="M 540 240 L 610 240" class="arrow aEm"/>
</svg>
