<svg xmlns="http://www.w3.org/2000/svg" viewBox="0 0 1000 480">
  <title>SettingsStore Katmanları</title>
  <defs>
    <filter id="shadow" x="-20%" y="-20%" width="140%" height="140%">
      <feDropShadow dx="0" dy="5" stdDeviation="6" flood-color="#0f172a" flood-opacity="0.06" />
    </filter>
    <marker id="arrow" viewBox="0 0 10 10" refX="9" refY="5" markerWidth="6" markerHeight="6" orient="auto">
      <path d="M 0 1 L 10 5 L 0 9 Z" fill="#64748b" />
    </marker>

    <linearGradient id="g-slate1" x1="0" y1="0" x2="0" y2="1">
      <stop offset="0" stop-color="#94a3b8" /><stop offset="1" stop-color="#64748b" />
    </linearGradient>
    <linearGradient id="g-slate2" x1="0" y1="0" x2="0" y2="1">
      <stop offset="0" stop-color="#64748b" /><stop offset="1" stop-color="#475569" />
    </linearGradient>
    <linearGradient id="g-slate3" x1="0" y1="0" x2="0" y2="1">
      <stop offset="0" stop-color="#475569" /><stop offset="1" stop-color="#334155" />
    </linearGradient>
    <linearGradient id="g-blue" x1="0" y1="0" x2="0" y2="1">
      <stop offset="0" stop-color="#2563eb" /><stop offset="1" stop-color="#1d4ed8" />
    </linearGradient>
    <linearGradient id="g-purple" x1="0" y1="0" x2="0" y2="1">
      <stop offset="0" stop-color="#8b5cf6" /><stop offset="1" stop-color="#7c3aed" />
    </linearGradient>
    <linearGradient id="g-green" x1="0" y1="0" x2="0" y2="1">
      <stop offset="0" stop-color="#10b981" /><stop offset="1" stop-color="#059669" />
    </linearGradient>
    <linearGradient id="g-amber" x1="0" y1="0" x2="0" y2="1">
      <stop offset="0" stop-color="#f59e0b" /><stop offset="1" stop-color="#d97706" />
    </linearGradient>
    <linearGradient id="g-sky" x1="0" y1="0" x2="0" y2="1">
      <stop offset="0" stop-color="#0ea5e9" /><stop offset="1" stop-color="#0284c7" />
    </linearGradient>

    <style>
      .bg { fill: #f8fafc; }
      .title { font: 800 24px system-ui, -apple-system, sans-serif; fill: #0f172a; letter-spacing: -0.5px; text-anchor: middle; }
      .sub { font: 500 15px system-ui, -apple-system, sans-serif; fill: #64748b; text-anchor: middle; }

      .l-name { font: 800 15px ui-monospace, SFMono-Regular, monospace; fill: #ffffff; text-anchor: middle; }
      .section { font: 800 12px system-ui, -apple-system, sans-serif; fill: #94a3b8; letter-spacing: 1px; text-anchor: middle; }

      .api { font: 800 18px ui-monospace, SFMono-Regular, monospace; fill: #ffffff; text-anchor: middle; }
      .body { font: 600 14px system-ui, -apple-system, sans-serif; fill: #ffffff; opacity: 0.95; text-anchor: middle; }
      .when { font: 800 12px ui-monospace, SFMono-Regular, monospace; fill: rgba(255,255,255,0.82); letter-spacing: 0.5px; text-anchor: middle; }

      .arrow-line { stroke: #64748b; stroke-width: 3; fill: none; marker-end: url(#arrow); stroke-linecap: round; stroke-linejoin: round; }
      .card { filter: url(#shadow); }
      .layer { filter: url(#shadow); }

      .flow { stroke-dasharray: 9 7; animation: dash 10s linear infinite; }
      @keyframes dash { 0% { stroke-dashoffset: 32; } 100% { stroke-dashoffset: 0; } }

      .pulse { animation: pulse 9s ease-in-out infinite; }
      @keyframes pulse { 0%,100% { opacity: 1; } 50% { opacity: 0.82; } }

      @media (prefers-reduced-motion: reduce) {
        .flow { animation: none; }
        .pulse { animation: none; }
      }
    </style>
  </defs>

  <rect width="100%" height="100%" rx="12" class="bg" />

  <text x="500" y="44" class="title">SettingsStore Katmanları</text>
  <text x="500" y="71" class="sub">Kaynaklar merge edilir, tipli Settings değerleri birleşik içerikten (SettingsContent) üretilir.</text>

  <!-- ================= KATMANLAR ================= -->
  <text x="190" y="106" class="section">KAYNAK KATMANLARI</text>
  <g transform="translate(60, 120)">
    <rect y="0" width="260" height="46" rx="8" fill="url(#g-slate1)" class="layer" />
    <text x="130" y="29" class="l-name">Default</text>

    <rect y="58" width="260" height="46" rx="8" fill="url(#g-slate2)" class="layer" />
    <text x="130" y="87" class="l-name">Global</text>

    <rect y="116" width="260" height="46" rx="8" fill="url(#g-slate3)" class="layer" />
    <text x="130" y="145" class="l-name">User</text>

    <rect y="174" width="260" height="46" rx="8" fill="url(#g-blue)" class="layer" />
    <text x="130" y="203" class="l-name">Server / Extension</text>

    <rect y="232" width="260" height="46" rx="8" fill="url(#g-purple)" class="layer" />
    <text x="130" y="261" class="l-name">Project Local</text>
  </g>

  <!-- ================= OKLAR 1 (kaynak -> merge) ================= -->
  <path d="M 320 143 C 372 143 392 263 412 263" class="arrow-line flow" />
  <path d="M 320 201 C 372 201 392 263 412 263" class="arrow-line flow" />
  <path d="M 320 259 H 412" class="arrow-line flow" />
  <path d="M 320 317 C 372 317 392 263 412 263" class="arrow-line flow" />
  <path d="M 320 375 C 372 375 392 263 412 263" class="arrow-line flow" />

  <!-- ================= MERGE FROM ================= -->
  <g transform="translate(420, 205)">
    <rect width="200" height="116" rx="12" fill="url(#g-green)" class="card pulse" />
    <text x="100" y="42" class="api">merge_from()</text>
    <text x="100" y="71" class="body">Öncelik Sırasıyla</text>
    <text x="100" y="97" class="when">MERGED_SETTINGS</text>
  </g>

  <!-- ================= OKLAR 2 (merge -> üretim / gözlem) ================= -->
  <path d="M 620 233 C 672 233 690 172 720 172" class="arrow-line flow" />
  <path d="M 620 293 C 672 293 690 312 720 312" class="arrow-line flow" />

  <!-- ================= TYPE GENERATION ================= -->
  <text x="835" y="106" class="section">TÜKETİM</text>
  <g transform="translate(730, 122)">
    <rect width="210" height="100" rx="12" fill="url(#g-amber)" class="card" />
    <text x="105" y="38" class="api" style="font-size: 15px;">Settings::from_settings</text>
    <text x="105" y="67" class="body">Tipli Değer Üretilir</text>
    <text x="105" y="89" class="when">T::get_global(cx)</text>
  </g>

  <!-- ================= OBSERVE ================= -->
  <g transform="translate(730, 262)">
    <rect width="210" height="100" rx="12" fill="url(#g-sky)" class="card" />
    <text x="105" y="38" class="api">observe_global()</text>
    <text x="105" y="67" class="body">cx.notify()</text>
    <text x="105" y="89" class="when">UI YENİDEN ÇİZİLİR</text>
  </g>

</svg>
