<svg xmlns="http://www.w3.org/2000/svg" viewBox="0 0 1100 480">
  <title>Tema Runtime Akışı</title>
  <defs>
    <filter id="shadow" x="-10%" y="-10%" width="120%" height="120%">
      <feDropShadow dx="0" dy="6" stdDeviation="6" flood-color="#000" flood-opacity="0.05" />
    </filter>
    <marker id="arrow" viewBox="0 0 10 10" refX="9" refY="5" markerWidth="6" markerHeight="6" orient="auto">
      <path d="M 0 1 L 10 5 L 0 9 Z" fill="#64748b" />
    </marker>
    <marker id="arrowB" viewBox="0 0 10 10" refX="9" refY="5" markerWidth="6" markerHeight="6" orient="auto">
      <path d="M 0 1 L 10 5 L 0 9 Z" fill="#0ea5e9" />
    </marker>
    <style>
      .bg { fill: #f8fafc; }
      .title { font: 800 24px system-ui, -apple-system, sans-serif; fill: #0f172a; letter-spacing: -0.5px; text-anchor: middle; }
      .sub { font: 500 15px system-ui, -apple-system, sans-serif; fill: #64748b; text-anchor: middle; }
      
      .api { font: 800 16px ui-monospace, SFMono-Regular, monospace; fill: #ffffff; text-anchor: middle; }
      .body { font: 14px system-ui, -apple-system, sans-serif; fill: #ffffff; opacity: 0.95; }
      .when { font: 800 12px system-ui, -apple-system, sans-serif; fill: rgba(255, 255, 255, 0.8); letter-spacing: 0.5px; }

      .arrow-line { stroke: #64748b; stroke-width: 3; fill: none; marker-end: url(#arrow); stroke-linejoin: round; }
      .arrow-blue { stroke: #0ea5e9; stroke-width: 3; fill: none; marker-end: url(#arrowB); stroke-dasharray: 6 4; stroke-linejoin: round; }
      .card { filter: url(#shadow); rx: 12px; }
    </style>
  </defs>

  <rect width="100%" height="100%" rx="12" class="bg" />
  
  <text x="550" y="46" class="title">Tema Runtime Akışı</text>
  <text x="550" y="74" class="sub">Init, registry ve pencere refresh zinciri nasıl çalışır?</text>

  <!-- ================= BAŞLANGIÇ ================= -->
  <g transform="translate(50, 140)">
    <rect width="200" height="120" fill="#334155" class="card" />
    <text x="100" y="30" class="api">init(...)</text>
    <text x="20" y="70" class="body">• AssetSource alınır</text>
    <text x="20" y="95" class="when">Global State Hazırlanır</text>
  </g>

  <!-- ================= MERKEZİ REGISTRY ================= -->
  <g transform="translate(330, 60)">
    <rect width="220" height="120" fill="#0284c7" class="card" />
    <text x="110" y="30" class="api">ThemeRegistry</text>
    <text x="20" y="70" class="body">• RwLock + HashMap</text>
    <text x="20" y="95" class="when">Theme / IconTheme Deposu</text>
  </g>

  <g transform="translate(330, 240)">
    <rect width="220" height="120" fill="#7c3aed" class="card" />
    <text x="110" y="30" class="api">GlobalTheme</text>
    <text x="20" y="70" class="body">• Aktif Temayı Tutar</text>
    <text x="20" y="95" class="when">System Appearance Takibi</text>
  </g>

  <!-- ================= TETİKLENME ================= -->
  <g transform="translate(630, 60)">
    <rect width="200" height="120" fill="#059669" class="card" />
    <text x="100" y="30" class="api">settings change</text>
    <text x="20" y="70" class="body">• Tema Adı Çözülür</text>
    <text x="20" y="95" class="when">Registry Lookup</text>
  </g>

  <g transform="translate(630, 240)">
    <rect width="200" height="120" fill="#d97706" class="card" />
    <text x="100" y="30" class="api">reload</text>
    <text x="20" y="70" class="body">• Diskten Tema Okunur</text>
    <text x="20" y="95" class="when">Hata Raporu Döner</text>
  </g>

  <!-- ================= SONUÇ (PENCERE) ================= -->
  <g transform="translate(880, 150)">
    <rect width="180" height="130" fill="#e11d48" class="card" />
    <text x="90" y="30" class="api">Window Refresh</text>
    <text x="20" y="65" class="body">• cx.notify()</text>
    <text x="20" y="85" class="body">• Render Yenilenir</text>
    <text x="20" y="110" class="when">cx.theme() Güncel!</text>
  </g>

  <!-- ================= OKLAR ================= -->
  <!-- Init -> Registry / GlobalTheme -->
  <path d="M 250 180 C 290 180 290 120 330 120" class="arrow-line" />
  <path d="M 250 220 C 290 220 290 300 330 300" class="arrow-line" />

  <!-- Registry -> Settings Change -->
  <path d="M 550 120 H 630" class="arrow-line" />

  <!-- GlobalTheme -> Reload -->
  <path d="M 550 300 H 630" class="arrow-line" />

  <!-- Tetikleyiciler -> Window Refresh -->
  <path d="M 830 120 C 860 120 860 190 880 190" class="arrow-line" />
  <path d="M 830 300 C 860 300 860 230 880 230" class="arrow-line" />

  <text x="850" y="150" font-family="system-ui, -apple-system, sans-serif" font-size="12" font-weight="700" fill="#64748b">tetikler</text>

  <!-- ================= ALT BİLGİ ================= -->
  <g transform="translate(50, 410)">
    <rect width="1010" height="40" rx="8" fill="#eff6ff" stroke="#3b82f6" stroke-width="1.5" />
    <text x="505" y="25" text-anchor="middle" font-family="system-ui, -apple-system, sans-serif" font-weight="600" font-size="14" fill="#1e40af">Init, registry yönetimi ve pencere yenileme zinciri tamamen senkrondur ve birbirine bağlıdır.</text>
  </g>

</svg>
