<svg xmlns="http://www.w3.org/2000/svg" viewBox="0 0 980 430">
  <title>Tema Runtime Akışı</title>
  <defs>
    <marker id="arrow" viewBox="0 0 1 1" refX="0" refY="0" markerWidth="1" markerHeight="1" orient="auto-start-reverse" overflow="visible" preserveAspectRatio="xMidYMid">
      <path d="M 5.77 0 L -2.88 5 V -5 Z" transform="scale(0.5)" fill="#334155" stroke="#334155" stroke-width="1pt" />
    </marker>
    <marker id="dot-arrow" viewBox="0 0 7 7" refX="3.5" refY="3.5" markerWidth="7" markerHeight="7" markerUnits="userSpaceOnUse">
      <circle cx="3.5" cy="3.5" r="3.5" fill="#334155" />
    </marker>
    <style>
      .title{font:700 22px system-ui,-apple-system,"Segoe UI",sans-serif;fill:#0f172a}
      .sub{font:13px system-ui,-apple-system,"Segoe UI",sans-serif;fill:#475569}
      .card{fill:#fff;stroke:#cbd5e1;stroke-width:1.4}
      .head{font:700 14px ui-monospace,SFMono-Regular,Menlo,Consolas,monospace;fill:#fff}
      .body{font:12px system-ui,-apple-system,"Segoe UI",sans-serif;fill:#334155}
      .small{font:11px system-ui,-apple-system,"Segoe UI",sans-serif;fill:#64748b}
      .arrow{stroke:#334155;stroke-width:2;fill:none;marker-end:url(#arrow); marker-start: url(#dot-arrow)}
    </style>
  </defs>
  <rect width="980" height="430" rx="10" fill="#f8fafc"/>
  <text x="490" y="36" text-anchor="middle" class="title">Tema Runtime Akışı</text>
  <text x="490" y="60" text-anchor="middle" class="sub">Init, registry ve pencere refresh zinciri aynı sözleşmenin parçalarıdır.</text>

  <rect x="42" y="128" width="160" height="98" rx="8" class="card"/>
  <rect x="42" y="128" width="160" height="30" rx="8" fill="#334155"/>
  <path d="M42 150 H202 V158 H42 Z" fill="#334155"/>
  <text x="58" y="148" class="head">init(...)</text>
  <text x="58" y="180" class="body">AssetSource alınır</text>
  <text x="58" y="198" class="small">global state hazırlanır</text>

  <rect x="262" y="80" width="172" height="98" rx="8" class="card"/>
  <rect x="262" y="80" width="172" height="30" rx="8" fill="#0284c7"/>
  <path d="M262 102 H434 V110 H262 Z" fill="#0284c7"/>
  <text x="278" y="100" class="head">ThemeRegistry</text>
  <text x="278" y="132" class="body">RwLock + HashMap</text>
  <text x="278" y="150" class="small">Theme / IconTheme</text>

  <rect x="262" y="230" width="172" height="98" rx="8" class="card"/>
  <rect x="262" y="230" width="172" height="30" rx="8" fill="#7c3aed"/>
  <path d="M262 252 H434 V260 H262 Z" fill="#7c3aed"/>
  <text x="278" y="250" class="head">GlobalTheme</text>
  <text x="278" y="282" class="body">aktif tema</text>
  <text x="278" y="300" class="small">system appearance</text>

  <rect x="524" y="80" width="174" height="98" rx="8" class="card"/>
  <rect x="524" y="80" width="174" height="30" rx="8" fill="#059669"/>
  <path d="M524 102 H698 V110 H524 Z" fill="#059669"/>
  <text x="540" y="100" class="head">settings change</text>
  <text x="540" y="132" class="body">tema adı çözülür</text>
  <text x="540" y="150" class="small">registry lookup</text>

  <rect x="524" y="230" width="174" height="98" rx="8" class="card"/>
  <rect x="524" y="230" width="174" height="30" rx="8" fill="#d97706"/>
  <path d="M524 252 H698 V260 H524 Z" fill="#d97706"/>
  <text x="540" y="250" class="head">reload</text>
  <text x="540" y="282" class="body">diskten tema</text>
  <text x="540" y="300" class="small">hata raporu döner</text>

  <rect x="780" y="152" width="150" height="112" rx="8" class="card"/>
  <rect x="780" y="152" width="150" height="30" rx="8" fill="#be123c"/>
  <path d="M780 174 H930 V182 H780 Z" fill="#be123c"/>
  <text x="796" y="172" class="head">Window refresh</text>
  <text x="796" y="204" class="body">cx.notify()</text>
  <text x="796" y="222" class="body">render yeniden</text>
  <text x="796" y="240" class="small">cx.theme() güncel</text>

  <path d="M202 178 C230 178 230 128 262 128" class="arrow"/>
  <path d="M202 188 C230 188 230 278 262 278" class="arrow"/>
  <path d="M434 128 H524" class="arrow"/>
  <path d="M434 278 H524" class="arrow"/>
  <path d="M698 128 C744 128 744 184 780 196" class="arrow"/>
  <path d="M698 278 C744 278 744 228 780 220" class="arrow"/>
</svg>
