<svg xmlns="http://www.w3.org/2000/svg" viewBox="0 0 1160 820">
  <title>Layout ve Taffy Akışı</title>
  <defs>
    <marker id="arrow" viewBox="0 0 10 10" refX="9" refY="5" markerWidth="7" markerHeight="7" orient="auto-start-reverse">
      <path d="M 0 0 L 10 5 L 0 10 z" fill="#334155" />
    </marker>
    <style>
      .title { font: 700 22px system-ui, -apple-system, "Segoe UI", sans-serif; fill: #0f172a; }
      .subtitle { font: 600 14px system-ui, -apple-system, "Segoe UI", sans-serif; fill: #475569; }
      .cardTitle { font: 700 14px ui-monospace, SFMono-Regular, Menlo, Consolas, monospace; fill: #fff; }
      .label { font: 700 13px system-ui, -apple-system, "Segoe UI", sans-serif; fill: #0f172a; }
      .body { font: 12px system-ui, -apple-system, "Segoe UI", sans-serif; fill: #334155; }
      .small { font: 11px system-ui, -apple-system, "Segoe UI", sans-serif; fill: #475569; }
      .mono { font: 11px ui-monospace, SFMono-Regular, Menlo, Consolas, monospace; fill: #334155; }
      .edge { font: 11px ui-monospace, SFMono-Regular, Menlo, Consolas, monospace; fill: #475569; }
      .card { fill: #fff; stroke: #cbd5e1; stroke-width: 1.4; }
      .arrow { stroke: #334155; stroke-width: 2; fill: none; marker-end: url(#arrow); }
      .arrowSoft { stroke: #94a3b8; stroke-width: 2; fill: none; marker-end: url(#arrow); }
      .arrowDash { stroke: #94a3b8; stroke-width: 2; fill: none; stroke-dasharray: 6 5; marker-end: url(#arrow); }
    </style>
  </defs>
  <rect width="100%" height="100%" rx="10" fill="#f8fafc" />
  <text x="580" y="36" text-anchor="middle" class="title">Layout ve Taffy Akışı</text>
  <text x="580" y="62" text-anchor="middle" class="subtitle">StyleRefinement element ağacından Taffy node'larına iner; ölçüm sonucu paint için bounds üretir.</text>

  <rect x="70" y="98" width="240" height="122" rx="8" class="card" />
  <rect x="70" y="98" width="240" height="30" rx="8" fill="#0284c7" />
  <path d="M 70 120 H 310 V 128 H 70 Z" fill="#0284c7" />
  <text x="84" y="118" class="cardTitle">1. Styled element</text>
  <text x="84" y="150" class="body">.flex(), .gap_2(), .w(...)</text>
  <text x="84" y="167" class="body">ve diğer refinement çağrıları.</text>
  <text x="84" y="184" class="body">ParentElement çocukları toplar.</text>

  <path d="M 310 159 L 370 159" class="arrowSoft" />

  <rect x="370" y="98" width="240" height="122" rx="8" class="card" />
  <rect x="370" y="98" width="240" height="30" rx="8" fill="#7c3aed" />
  <path d="M 370 120 H 610 V 128 H 370 Z" fill="#7c3aed" />
  <text x="384" y="118" class="cardTitle">2. request_layout</text>
  <text x="384" y="150" class="body">Element kendi Taffy stilini üretir.</text>
  <text x="384" y="167" class="body">Çocuk LayoutId'leri bağlanır.</text>
  <text x="384" y="184" class="mono">-&gt; (LayoutId, state)</text>

  <path d="M 610 159 L 670 159" class="arrowSoft" />

  <rect x="670" y="98" width="240" height="122" rx="8" class="card" />
  <rect x="670" y="98" width="240" height="30" rx="8" fill="#059669" />
  <path d="M 670 120 H 910 V 128 H 670 Z" fill="#059669" />
  <text x="684" y="118" class="cardTitle">3. Taffy solve</text>
  <text x="684" y="150" class="body">Flex/grid ölçüleri çözülür.</text>
  <text x="684" y="167" class="body">Min/max, gap ve padding uygulanır.</text>
  <text x="684" y="184" class="body">Mutlak konumlu öğeler ayrıştırılır.</text>

  <path d="M 790 220 L 790 282" class="arrowSoft" />

  <rect x="670" y="282" width="240" height="122" rx="8" class="card" />
  <rect x="670" y="282" width="240" height="30" rx="8" fill="#d97706" />
  <path d="M 670 304 H 910 V 312 H 670 Z" fill="#d97706" />
  <text x="684" y="302" class="cardTitle">4. Bounds</text>
  <text x="684" y="334" class="body">Her LayoutId için piksel rect.</text>
  <text x="684" y="351" class="body">Origin, size ve overflow bilgisi.</text>
  <text x="684" y="368" class="body">prepaint bu rect'leri kullanır.</text>

  <path d="M 670 343 L 610 343" class="arrowSoft" />

  <rect x="370" y="282" width="240" height="122" rx="8" class="card" />
  <rect x="370" y="282" width="240" height="30" rx="8" fill="#be123c" />
  <path d="M 370 304 H 610 V 312 H 370 Z" fill="#be123c" />
  <text x="384" y="302" class="cardTitle">5. prepaint</text>
  <text x="384" y="334" class="body">Hitbox, cursor ve scroll state.</text>
  <text x="384" y="351" class="body">Element başına ara veri saklanır.</text>
  <text x="384" y="368" class="mono">insert_hitbox(...)</text>

  <path d="M 370 343 L 310 343" class="arrowSoft" />

  <rect x="70" y="282" width="240" height="122" rx="8" class="card" />
  <rect x="70" y="282" width="240" height="30" rx="8" fill="#334155" />
  <path d="M 70 304 H 310 V 312 H 70 Z" fill="#334155" />
  <text x="84" y="302" class="cardTitle">6. paint</text>
  <text x="84" y="334" class="body">Bounds ile primitive çizilir.</text>
  <text x="84" y="351" class="body">paint_quad, image, svg, path.</text>
  <text x="84" y="368" class="body">GPU katmanına komut gider.</text>

  <rect x="70" y="466" width="420" height="210" rx="10" fill="#eef2ff" stroke="#6366f1" stroke-width="1.2" />
  <text x="94" y="496" class="label">Ölçüm notları</text>
  <text x="94" y="524" class="body">Text ve image gibi içerik ölçen elementler</text>
  <text x="94" y="541" class="body">Taffy'ye measure callback sağlayabilir.</text>
  <text x="94" y="574" class="body">Yerleşim geçersizleştirme:</text>
  <text x="94" y="591" class="mono">cx.notify()</text>
  <text x="94" y="608" class="mono">style veya child listesi değişimi</text>
  <text x="94" y="625" class="mono">pencere boyutu / DPI değişimi</text>

  <rect x="550" y="466" width="540" height="210" rx="10" fill="#fef3c7" stroke="#d97706" stroke-width="1.2" />
  <text x="574" y="496" class="label">Sık karıştırılan sınır</text>
  <text x="574" y="524" class="body">request_layout çizim yapmaz; yalnızca yapı ve ölçüm isteği üretir.</text>
  <text x="574" y="548" class="body">prepaint hitbox ve ara durum toplar; paint komutları burada çağrılmaz.</text>
  <text x="574" y="572" class="body">paint yalnızca önceden çözülmüş bounds ve prepaint durumunu tüketir.</text>
  <text x="574" y="606" class="body">Bu ayrım debug derlemede aşama kontrolleriyle korunur.</text>

  <path d="M 190 404 L 190 430 L 790 430 L 790 404" class="arrowDash" />
  <text x="490" y="424" text-anchor="middle" class="edge">refresh / notify sonrası yeni frame'de tekrar layout yapılabilir</text>
</svg>
