<svg xmlns="http://www.w3.org/2000/svg" viewBox="0 0 800 500">
  <title>GPUI pencere yaşam döngüsü</title>
  <defs>
    <marker id="aSlate" viewBox="0 0 10 10" refX="9" refY="5" markerWidth="7" markerHeight="7" orient="auto-start-reverse"><path d="M0 0L10 5L0 10z" fill="#64748b"/></marker>
    <marker id="aEmerald" viewBox="0 0 10 10" refX="9" refY="5" markerWidth="7" markerHeight="7" orient="auto-start-reverse"><path d="M0 0L10 5L0 10z" fill="#059669"/></marker>
    <marker id="aViolet" viewBox="0 0 10 10" refX="9" refY="5" markerWidth="7" markerHeight="7" orient="auto-start-reverse"><path d="M0 0L10 5L0 10z" fill="#7c3aed"/></marker>
    <marker id="aCyan" viewBox="0 0 10 10" refX="9" refY="5" markerWidth="7" markerHeight="7" orient="auto-start-reverse"><path d="M0 0L10 5L0 10z" fill="#0891b2"/></marker>
    <marker id="aAmber" viewBox="0 0 10 10" refX="9" refY="5" markerWidth="7" markerHeight="7" orient="auto-start-reverse"><path d="M0 0L10 5L0 10z" fill="#d97706"/></marker>
    <marker id="aRose" viewBox="0 0 10 10" refX="9" refY="5" markerWidth="7" markerHeight="7" orient="auto-start-reverse"><path d="M0 0L10 5L0 10z" fill="#be123c"/></marker>
    <marker id="aSky" viewBox="0 0 10 10" refX="9" refY="5" markerWidth="7" markerHeight="7" orient="auto-start-reverse"><path d="M0 0L10 5L0 10z" fill="#0284c7"/></marker>
    <style>
      text{font-family:system-ui,-apple-system,"Segoe UI",sans-serif}
      .title{font-size:20px;font-weight:700;fill:#0f172a}
      .sub{font-size:12px;font-weight:600;fill:#475569}
      .h{font-size:13px;font-weight:700;fill:#0f172a}
      .t{font-size:12px;font-weight:600;fill:#0f172a}
      .body{font-size:11px;fill:#475569}
      .small{font-size:10px;fill:#64748b}
      .mono{font-family:ui-monospace,SFMono-Regular,Menlo,Consolas,monospace;font-size:10px;fill:#0f172a}
      .card{fill:#fff;stroke-width:1.6}
      .tEmerald{fill:#059669}.tViolet{fill:#7c3aed}.tCyan{fill:#0891b2}.tAmber{fill:#d97706}.tRose{fill:#be123c}.tSky{fill:#0284c7}.tSlate{fill:#64748b}.tWhite{fill:#fff}
      .arrow{stroke:#64748b;stroke-width:2;fill:none;marker-end:url(#aSlate)}
      .aEm{stroke:#059669;marker-end:url(#aEmerald)}.aVi{stroke:#7c3aed;marker-end:url(#aViolet)}.aCy{stroke:#0891b2;marker-end:url(#aCyan)}.aAm{stroke:#d97706;marker-end:url(#aAmber)}.aRo{stroke:#be123c;marker-end:url(#aRose)}.aSk{stroke:#0284c7;marker-end:url(#aSky)}
    </style>
  </defs>
  <rect width="100%" height="100%" rx="10" fill="#f8fafc"/>

  <text x="400" y="40" text-anchor="middle" class="title">GPUI Pencere Yaşam Döngüsü</text>
  <text x="400" y="63" text-anchor="middle" class="sub">Pencere durum geçişleri ve olay kancaları</text>

  <!-- 1. Oluşturulma -->
  <g transform="translate(60,200)">
    <rect width="140" height="90" rx="10" class="card" stroke="#d97706"/>
    <text x="70" y="35" text-anchor="middle" class="t">1. Oluşturulma</text>
    <rect x="15" y="50" width="110" height="22" rx="4" fill="#d97706" fill-opacity="0.12"/>
    <text x="70" y="65" text-anchor="middle" class="mono tAmber" font-weight="600">cx.open_window()</text>
  </g>

  <!-- 2. Aktif -->
  <g transform="translate(290,120)">
    <rect width="160" height="100" rx="10" class="card" stroke="#059669"/>
    <text x="80" y="32" text-anchor="middle" class="t">2. Aktif (Odakta)</text>
    <text x="80" y="52" text-anchor="middle" class="small">Klavye ve fare odağı</text>
    <rect x="12" y="66" width="136" height="22" rx="4" fill="#059669" fill-opacity="0.12"/>
    <text x="80" y="81" text-anchor="middle" class="mono tEmerald" font-weight="600">observe_window_activation</text>
  </g>

  <!-- 3. Pasif -->
  <g transform="translate(290,280)">
    <rect width="160" height="100" rx="10" class="card" stroke="#94a3b8"/>
    <text x="80" y="32" text-anchor="middle" class="t">3. Pasif (Inactive)</text>
    <text x="80" y="52" text-anchor="middle" class="small">Arka plana alınma</text>
    <rect x="12" y="66" width="136" height="22" rx="4" fill="#64748b" fill-opacity="0.12"/>
    <text x="80" y="81" text-anchor="middle" class="mono tSlate" font-weight="600">minimize_window()</text>
  </g>

  <!-- 4. Kapanma -->
  <g transform="translate(580,200)">
    <rect width="140" height="90" rx="10" class="card" stroke="#be123c"/>
    <text x="70" y="35" text-anchor="middle" class="t">4. Kapanma</text>
    <rect x="15" y="50" width="110" height="22" rx="4" fill="#be123c" fill-opacity="0.12"/>
    <text x="70" y="65" text-anchor="middle" class="mono tRose" font-weight="600">on_window_closed</text>
  </g>

  <!-- Oluşturuldu -> Aktif -->
  <path d="M 200 230 L 245 230 L 245 170 L 290 170" class="arrow aEm"/>

  <!-- Aktif <-> Pasif -->
  <path d="M 350 220 L 350 280" class="arrow aSlate"/>
  <path d="M 390 280 L 390 220" class="arrow aEm"/>
  <text x="370" y="254" text-anchor="middle" class="small">Odak</text>

  <!-- Aktif -> Kapanma -->
  <path d="M 450 170 L 525 170 L 525 230 L 580 230" class="arrow aRo"/>

  <!-- Pasif -> Kapanma -->
  <path d="M 450 330 L 525 330 L 525 260 L 580 260" class="arrow aRo"/>

  <!-- Kapatma onayı sorgusu -->
  <path d="M 525 210 Q 525 100 372 120" fill="none" stroke="#be123c" stroke-width="1.5" stroke-dasharray="4,4" marker-end="url(#aRose)"/>
  <text x="490" y="108" text-anchor="middle" class="small tRose mono" font-weight="600">should_close?</text>
</svg>
