<svg xmlns="http://www.w3.org/2000/svg" viewBox="0 0 820 400">
  <title>GPUI Platform Seçim Akışı</title>
  <defs>
    <marker id="arrow" viewBox="0 0 10 10" refX="9" refY="5" markerWidth="6" markerHeight="6" orient="auto-start-reverse">
      <path d="M 0 0 L 10 5 L 0 10 z" fill="#334155" />
    </marker>
    <marker id="arrowG" viewBox="0 0 10 10" refX="9" refY="5" markerWidth="6" markerHeight="6" orient="auto-start-reverse">
      <path d="M 0 0 L 10 5 L 0 10 z" fill="#059669" />
    </marker>
    <style>
      .title  { font: 700 20px system-ui, -apple-system, "Segoe UI", sans-serif; fill: #0f172a; }
      .sub    { font: 13px system-ui, -apple-system, "Segoe UI", sans-serif; fill: #475569; }
      .entry  { font: 700 13px ui-monospace, SFMono-Regular, Menlo, Consolas, monospace; fill: #fff; }
      .plat   { font: 700 12px system-ui, -apple-system, "Segoe UI", sans-serif; fill: #fff; }
      .impl   { font: 11px ui-monospace, SFMono-Regular, Menlo, Consolas, monospace; fill: #fff; }
      .note   { font: 11px system-ui, -apple-system, "Segoe UI", sans-serif; fill: #475569; }
      .body   { font: 12px system-ui, -apple-system, "Segoe UI", sans-serif; fill: #334155; }
      .arrow  { stroke: #334155; stroke-width: 2; fill: none; marker-end: url(#arrow); }
      .arrowG { stroke: #059669; stroke-width: 1.8; stroke-dasharray: 5 4; fill: none; marker-end: url(#arrowG); }
    </style>
  </defs>

  <rect width="820" height="400" rx="10" fill="#f8fafc" />
  <text x="410" y="34" text-anchor="middle" class="title">GPUI Platform Seçim Akışı</text>
  <text x="410" y="56" text-anchor="middle" class="sub">application() çağrısı işletim sistemine göre doğru platform uygulamasını otomatik döndürür.</text>

  <!-- Giriş -->
  <rect x="300" y="72" width="220" height="46" rx="8" fill="#334155" />
  <text x="410" y="94" text-anchor="middle" class="entry">gpui_platform::application()</text>
  <text x="410" y="110" text-anchor="middle" class="note" fill="#94a3b8">işletim sistemi algılar</text>

  <!-- Dağıtım okları -->
  <path d="M 410 118 L 90 162" class="arrow" />
  <path d="M 410 118 L 248 162" class="arrow" />
  <path d="M 410 118 L 410 162" class="arrow" />
  <path d="M 410 118 L 572 162" class="arrow" />
  <path d="M 410 118 L 730 162" class="arrow" />

  <!-- macOS -->
  <rect x="20" y="164" width="138" height="64" rx="7" fill="#1d4ed8" />
  <text x="89" y="186" text-anchor="middle" class="plat">macOS</text>
  <text x="89" y="202" text-anchor="middle" class="impl">MacPlatform</text>
  <text x="89" y="218" text-anchor="middle" class="note" fill="#bfdbfe">::new(headless)</text>

  <!-- Windows -->
  <rect x="174" y="164" width="138" height="64" rx="7" fill="#7c3aed" />
  <text x="243" y="186" text-anchor="middle" class="plat">Windows</text>
  <text x="243" y="202" text-anchor="middle" class="impl">WindowsPlatform</text>
  <text x="243" y="218" text-anchor="middle" class="note" fill="#ddd6fe">::new(headless)</text>

  <!-- Linux/FreeBSD -->
  <rect x="328" y="164" width="164" height="64" rx="7" fill="#0891b2" />
  <text x="410" y="186" text-anchor="middle" class="plat">Linux / FreeBSD</text>
  <text x="410" y="202" text-anchor="middle" class="impl">current_platform()</text>
  <text x="410" y="218" text-anchor="middle" class="note" fill="#e0f2fe">Wayland veya X11 seçer</text>

  <!-- Web/WASM -->
  <rect x="508" y="164" width="138" height="64" rx="7" fill="#059669" />
  <text x="577" y="186" text-anchor="middle" class="plat">Web / WASM</text>
  <text x="577" y="202" text-anchor="middle" class="impl">WebPlatform</text>
  <text x="577" y="218" text-anchor="middle" class="note" fill="#d1fae5">gpui_web</text>

  <!-- Headless -->
  <rect x="662" y="164" width="138" height="64" rx="7" fill="#b45309" />
  <text x="731" y="186" text-anchor="middle" class="plat">Headless</text>
  <text x="731" y="202" text-anchor="middle" class="impl">headless()</text>
  <text x="731" y="218" text-anchor="middle" class="note" fill="#fde68a">pencere yok</text>

  <!-- Linux alt dalları -->
  <path d="M 380 230 L 328 280" class="arrow" />
  <path d="M 440 230 L 492 280" class="arrow" />

  <rect x="256" y="282" width="136" height="50" rx="6" fill="#0e7490" />
  <text x="324" y="302" text-anchor="middle" class="plat">Wayland</text>
  <text x="324" y="318" text-anchor="middle" class="impl">gpui_linux</text>

  <rect x="418" y="282" width="136" height="50" rx="6" fill="#0e7490" />
  <text x="486" y="302" text-anchor="middle" class="plat">X11</text>
  <text x="486" y="318" text-anchor="middle" class="impl">gpui_linux</text>

  <!-- Test ayrımı (headless) -->
  <path d="M 731 228 L 731 282" class="arrowG" />
  <rect x="662" y="284" width="138" height="50" rx="6" fill="#fff7ed" stroke="#fcd34d" stroke-width="1.5" />
  <text x="731" y="306" text-anchor="middle" class="body" style="fill:#92400e; font-weight:700">Test desteği</text>
  <text x="731" y="322" text-anchor="middle" class="note">current_headless_renderer()</text>

  <!-- Alt not -->
  <rect x="20" y="350" width="780" height="30" rx="6" fill="#f1f5f9" stroke="#e2e8f0" />
  <text x="410" y="369" text-anchor="middle" class="note">Tüm dallar aynı Platform trait yüzeyini karşılar. Uygulama kodu OS'a göre ayrışmaz; App ve Window sarmalayıcıları farkı gizler.</text>

</svg>
