<svg xmlns="http://www.w3.org/2000/svg" viewBox="0 0 960 360">
  <title>platform_title_bar Katmanı</title>
  <desc>Platforma göre pencere kontrol butonlarını, sürükleme alanını, yerel sekmeleri ve ürün başlığı çocuklarını bir araya getiren başlık çubuğu katmanı.</desc>
  <defs>
    <marker id="arrow" viewBox="0 0 1 1" refX="0" refY="0" markerWidth="1" markerHeight="1" orient="auto-start-reverse" overflow="visible" preserveAspectRatio="xMidYMid">
      <path d="M 5.77 0 L -2.88 5 V -5 Z" transform="scale(0.5)" fill="#334155" stroke="#334155" stroke-width="1pt" />
    </marker>
    <marker id="dot-arrow" viewBox="0 0 7 7" refX="3.5" refY="3.5" markerWidth="7" markerHeight="7" markerUnits="userSpaceOnUse">
      <circle cx="3.5" cy="3.5" r="3.5" fill="#334155" />
    </marker>
    <style>
      .title { font: 700 22px system-ui, -apple-system, "Segoe UI", sans-serif; fill: #0f172a; }
      .subtitle { font: 600 14px system-ui, -apple-system, "Segoe UI", sans-serif; fill: #475569; }
      .label { font: 700 13px system-ui, -apple-system, "Segoe UI", sans-serif; fill: #0f172a; }
      .body { font: 12px system-ui, -apple-system, "Segoe UI", sans-serif; fill: #334155; }
      .small { font: 11px system-ui, -apple-system, "Segoe UI", sans-serif; fill: #475569; }
      .mono { font: 700 12px ui-monospace, SFMono-Regular, Menlo, Consolas, monospace; fill: #0f172a; }
      .monoLight { font: 12px ui-monospace, SFMono-Regular, Menlo, Consolas, monospace; fill: #334155; }
      .card { fill: #fff; stroke: #cbd5e1; stroke-width: 1.3; }
      .soft { fill: #f8fafc; stroke: #cbd5e1; stroke-width: 1.2; }
      .chip { fill: #eef2ff; stroke: #c7d2fe; stroke-width: 1.1; }
      .arrow { stroke: #334155; stroke-width: 2; fill: none; marker-end: url(#arrow); marker-start: url(#dot-arrow); }
      .arrowSoft { stroke: #94a3b8; stroke-width: 1.8; fill: none; marker-end: url(#arrow); marker-start: url(#dot-arrow); }
    </style>
  </defs>

  <rect width="960" height="360" rx="10" fill="#f8fafc" />
  <text x="480" y="36" text-anchor="middle" class="title">platform_title_bar: platform kabuğu</text>
  <text x="480" y="60" text-anchor="middle" class="subtitle">Pencere mekaniğini bilir; ürün içeriğini çocuk element olarak alır.</text>

  <rect x="62" y="96" width="836" height="156" rx="12" fill="#e2e8f0" stroke="#cbd5e1" />
  <rect x="82" y="118" width="796" height="64" rx="9" fill="#fff" stroke="#94a3b8" stroke-width="1.4" />
  <rect x="82" y="118" width="796" height="24" rx="9" fill="#334155" />
  <path d="M 82 136 H 878 V 142 H 82 Z" fill="#334155" />
  <text x="102" y="135" class="mono" fill="#fff">PlatformTitleBar</text>

  <circle cx="118" cy="162" r="7" fill="#ef4444" />
  <circle cx="140" cy="162" r="7" fill="#f59e0b" />
  <circle cx="162" cy="162" r="7" fill="#22c55e" />
  <text x="102" y="196" class="small">macOS trafik ışığı alanı</text>

  <rect x="230" y="150" width="306" height="26" rx="5" fill="#f1f5f9" stroke="#cbd5e1" />
  <text x="383" y="168" text-anchor="middle" class="body">sürükleme alanı ve native sekme boşluğu</text>

  <rect x="574" y="150" width="68" height="26" rx="4" fill="#e0f2fe" stroke="#7dd3fc" />
  <text x="608" y="168" text-anchor="middle" class="small">min</text>
  <rect x="650" y="150" width="68" height="26" rx="4" fill="#e0f2fe" stroke="#7dd3fc" />
  <text x="684" y="168" text-anchor="middle" class="small">max</text>
  <rect x="726" y="150" width="68" height="26" rx="4" fill="#fee2e2" stroke="#fca5a5" />
  <text x="760" y="168" text-anchor="middle" class="small">close</text>
  <text x="586" y="196" class="small">Windows/Linux kontrol butonları</text>

  <rect x="186" y="216" width="588" height="28" rx="6" fill="#f8fafc" stroke="#cbd5e1" />
  <text x="480" y="235" text-anchor="middle" class="body">ürün başlığı çocukları: menü, proje adı, kullanıcı alanı, aksiyonlar</text>

  <path d="M 480 252 L 480 280" class="arrow" />
  <rect x="318" y="288" width="324" height="44" rx="8" class="card" />
  <text x="480" y="308" text-anchor="middle" class="label">Window ve platform servisleri</text>
  <text x="480" y="325" text-anchor="middle" class="small">hit-test, minimize, maximize, close, sekme ve sürükleme davranışı</text>

  <rect x="62" y="276" width="204" height="52" rx="8" class="chip" />
  <text x="164" y="297" text-anchor="middle" class="label">PlatformStyle</text>
  <text x="164" y="314" text-anchor="middle" class="small">macOS / Windows / Linux</text>

  <rect x="694" y="276" width="204" height="52" rx="8" class="chip" />
  <text x="796" y="297" text-anchor="middle" class="label">App action</text>
  <text x="796" y="314" text-anchor="middle" class="small">kapatma kararı üründen gelir</text>

  <path d="M 266 302 L 310 302" class="arrowSoft" />
  <path d="M 694 302 L 650 302" class="arrowSoft" />
</svg>
