<svg xmlns="http://www.w3.org/2000/svg" viewBox="0 0 1160 760">
  <title>View Update ve Render Bağlantısı</title>
  <defs>
    <marker id="arrow" viewBox="0 0 1 1" refX="0" refY="0" markerWidth="1" markerHeight="1" orient="auto-start-reverse" overflow="visible" preserveAspectRatio="xMidYMid">
      <path d="M 5.77 0 L -2.88 5 V -5 Z" transform="scale(0.5)" fill="#334155" stroke="#334155" stroke-width="1pt" />
    </marker>
    <marker id="dot-arrow" viewBox="0 0 7 7" refX="3.5" refY="3.5" markerWidth="7" markerHeight="7" markerUnits="userSpaceOnUse">
      <circle cx="3.5" cy="3.5" r="3.5" fill="#334155" />
    </marker>
    <style>
      .title { font: 700 22px system-ui, -apple-system, "Segoe UI", sans-serif; fill: #0f172a; }
      .subtitle { font: 600 14px system-ui, -apple-system, "Segoe UI", sans-serif; fill: #475569; }
      .cardTitle { font: 700 14px ui-monospace, SFMono-Regular, Menlo, Consolas, monospace; fill: #fff; }
      .label { font: 700 13px system-ui, -apple-system, "Segoe UI", sans-serif; fill: #0f172a; }
      .body { font: 12px system-ui, -apple-system, "Segoe UI", sans-serif; fill: #334155; }
      .small { font: 11px system-ui, -apple-system, "Segoe UI", sans-serif; fill: #475569; }
      .mono { font: 11px ui-monospace, SFMono-Regular, Menlo, Consolas, monospace; fill: #334155; }
      .edge { font: 11px ui-monospace, SFMono-Regular, Menlo, Consolas, monospace; fill: #475569; }
      .card { fill: #fff; stroke: #cbd5e1; stroke-width: 1.4; }
      .arrow { stroke: #334155; stroke-width: 2; fill: none; marker-end: url(#arrow); marker-start: url(#dot-arrow); }
      .arrowSoft { stroke: #94a3b8; stroke-width: 2; fill: none; marker-end: url(#arrow); marker-start: url(#dot-arrow); }
      .arrowDash { stroke: #94a3b8; stroke-width: 2; fill: none; stroke-dasharray: 6 5; marker-end: url(#arrow); marker-start: url(#dot-arrow); }
    </style>
  </defs>
  <rect width="100%" height="100%" rx="10" fill="#f8fafc" />
  <text x="580" y="36" text-anchor="middle" class="title">View Update ve Render Bağlantısı</text>
  <text x="580" y="62" text-anchor="middle" class="subtitle">State güncellemesi görünür hale gelmek için notify üzerinden render kuyruğuna bağlanır.</text>

  <rect x="60" y="106" width="250" height="120" rx="8" class="card" />
  <rect x="60" y="106" width="250" height="30" rx="8" fill="#0284c7" />
  <path d="M 60 128 H 310 V 136 H 60 Z" fill="#0284c7" />
  <text x="74" y="126" class="cardTitle">1. Girdi / olay</text>
  <text x="74" y="158" class="body">Action, mouse, keyboard, timer.</text>
  <text x="74" y="175" class="body">Listener veya async callback çalışır.</text>
  <text x="74" y="192" class="mono">cx.listener(...)</text>

  <path d="M 310 166 L 362 166" class="arrowSoft" />

  <rect x="370" y="106" width="250" height="120" rx="8" class="card" />
  <rect x="370" y="106" width="250" height="30" rx="8" fill="#7c3aed" />
  <path d="M 370 128 H 620 V 136 H 370 Z" fill="#7c3aed" />
  <text x="384" y="126" class="cardTitle">2. State update</text>
  <text x="384" y="158" class="body">Entity verisi güncellenir.</text>
  <text x="384" y="175" class="mono">entity.update(cx, |v, cx| ...)</text>
  <text x="384" y="192" class="body">İç state artık değişmiştir.</text>

  <path d="M 620 166 L 672 166" class="arrowSoft" />

  <rect x="680" y="106" width="250" height="120" rx="8" class="card" />
  <rect x="680" y="106" width="250" height="30" rx="8" fill="#059669" />
  <path d="M 680 128 H 930 V 136 H 680 Z" fill="#059669" />
  <text x="694" y="126" class="cardTitle">3. cx.notify()</text>
  <text x="694" y="158" class="body">Entity dirty olarak işaretlenir.</text>
  <text x="694" y="175" class="body">İlgili window refresh ister.</text>
  <text x="694" y="192" class="body">Aynı frame'de birleşebilir.</text>

  <path d="M 805 226 L 805 278" class="arrowSoft" />

  <rect x="680" y="286" width="250" height="120" rx="8" class="card" />
  <rect x="680" y="286" width="250" height="30" rx="8" fill="#d97706" />
  <path d="M 680 308 H 930 V 316 H 680 Z" fill="#d97706" />
  <text x="694" y="306" class="cardTitle">4. Render::render</text>
  <text x="694" y="338" class="body">Yeni element ağacı üretilir.</text>
  <text x="694" y="355" class="body">State okunur, UI buna göre kurulur.</text>
  <text x="694" y="372" class="mono">impl IntoElement</text>

  <path d="M 680 346 L 628 346" class="arrowSoft" />

  <rect x="370" y="286" width="250" height="120" rx="8" class="card" />
  <rect x="370" y="286" width="250" height="30" rx="8" fill="#be123c" />
  <path d="M 370 308 H 620 V 316 H 370 Z" fill="#be123c" />
  <text x="384" y="306" class="cardTitle">5. Layout / paint</text>
  <text x="384" y="338" class="body">request_layout, prepaint, paint.</text>
  <text x="384" y="355" class="body">Hitbox ve GPU primitive üretilir.</text>
  <text x="384" y="372" class="body">Window yeni frame'i gösterir.</text>

  <path d="M 370 346 L 318 346" class="arrowDash" />

  <rect x="60" y="286" width="250" height="120" rx="8" class="card" />
  <rect x="60" y="286" width="250" height="30" rx="8" fill="#334155" />
  <path d="M 60 308 H 310 V 316 H 60 Z" fill="#334155" />
  <text x="74" y="306" class="cardTitle">6. Yeni etkileşim</text>
  <text x="74" y="338" class="body">Paint sonrası hitbox ve listener seti</text>
  <text x="74" y="355" class="body">bir sonraki input için hazırdır.</text>
  <text x="74" y="372" class="body">Döngü yeniden başlar.</text>

  <rect x="80" y="480" width="480" height="144" rx="10" fill="#eef2ff" stroke="#6366f1" stroke-width="1.2" />
  <text x="104" y="510" class="label">notify yoksa ne olur?</text>
  <text x="104" y="538" class="body">Entity state'i değişir ama render kuyruğuna sinyal gitmez.</text>
  <text x="104" y="562" class="body">Başka bir refresh olana kadar yeni UI görünmeyebilir.</text>
  <text x="104" y="596" class="body">Bu yüzden görünür state değişiklikleri genellikle cx.notify() ile biter.</text>

  <rect x="600" y="480" width="480" height="144" rx="10" fill="#fef3c7" stroke="#d97706" stroke-width="1.2" />
  <text x="624" y="510" class="label">Async tarafta</text>
  <text x="624" y="538" class="body">WeakEntity update çağrısı Result döndürür.</text>
  <text x="624" y="562" class="body">Entity düşmüşse update çalışmaz; UI güvenli kalır.</text>
  <text x="624" y="596" class="mono">weak.update(cx, |view, cx| { cx.notify(); })?</text>
</svg>
